<svg width="97" height="129" viewBox="0 0 97 129" fill="none" xmlns="http://www.w3.org/2000/svg">
<path fill-rule="evenodd" clip-rule="evenodd" d="M32.3216 0.581001C14.0566 1.648 12.0276 1.66 5.43056 0.747002L0.0395546 0L0.770557 5.391C1.75356 12.649 1.75556 13.885 0.819557 36.032L0.0055542 55.282H9.01155H18.0176L19.8756 51.162C22.2406 45.918 28.8406 39.107 34.4586 36.113C38.1446 34.148 40.2966 33.788 48.3216 33.788C56.3466 33.788 58.4986 34.148 62.1846 36.113C67.8026 39.107 74.4026 45.918 76.7676 51.162L78.6256 55.282H87.6316H96.6376L95.8236 36.032C94.8896 13.928 94.8906 12.625 95.8596 5.532L96.5756 0.282001H93.0136C91.0546 0.282001 88.2666 0.733001 86.8186 1.283C85.0786 1.945 81.0666 1.956 75.0026 1.318C61.1816 -0.136999 48.4026 -0.357999 32.3216 0.581001ZM32.3216 48.848C32.3216 54.176 33.8096 55.282 40.9786 55.282H47.5656L46.0916 53.032C43.8906 49.673 38.4046 46.282 35.1736 46.282C32.7786 46.282 32.3216 46.693 32.3216 48.848ZM55.3216 48.532C53.5096 49.769 51.3626 51.795 50.5516 53.032L49.0776 55.282H55.6646C62.8336 55.282 64.3216 54.176 64.3216 48.848C64.3216 46.693 63.8646 46.282 61.4696 46.282C59.9006 46.282 57.1346 47.295 55.3216 48.532Z" fill="black"/>
<path fill-rule="evenodd" clip-rule="evenodd" d="M32.3216 0.581001C14.0566 1.648 12.0276 1.66 5.43056 0.747002L0.0395546 0L0.770557 5.391C1.75356 12.649 1.75556 13.885 0.819557 36.032L0.0055542 55.282H9.01155H18.0176L19.8756 51.162C22.2406 45.918 28.8406 39.107 34.4586 36.113C38.1446 34.148 40.2966 33.788 48.3216 33.788C56.3466 33.788 58.4986 34.148 62.1846 36.113C67.8026 39.107 74.4026 45.918 76.7676 51.162L78.6256 55.282H87.6316H96.6376L95.8236 36.032C94.8896 13.928 94.8906 12.625 95.8596 5.532L96.5756 0.282001H93.0136C91.0546 0.282001 88.2666 0.733001 86.8186 1.283C85.0786 1.945 81.0666 1.956 75.0026 1.318C61.1816 -0.136999 48.4026 -0.357999 32.3216 0.581001ZM32.3216 48.848C32.3216 54.176 33.8096 55.282 40.9786 55.282H47.5656L46.0916 53.032C43.8906 49.673 38.4046 46.282 35.1736 46.282C32.7786 46.282 32.3216 46.693 32.3216 48.848ZM55.3216 48.532C53.5096 49.769 51.3626 51.795 50.5516 53.032L49.0776 55.282H55.6646C62.8336 55.282 64.3216 54.176 64.3216 48.848C64.3216 46.693 63.8646 46.282 61.4696 46.282C59.9006 46.282 57.1346 47.295 55.3216 48.532Z" fill="black"/>
<path fill-rule="evenodd" clip-rule="evenodd" d="M32.3216 0.581001C14.0566 1.648 12.0276 1.66 5.43056 0.747002L0.0395546 0L0.770557 5.391C1.75356 12.649 1.75556 13.885 0.819557 36.032L0.0055542 55.282H9.01155H18.0176L19.8756 51.162C22.2406 45.918 28.8406 39.107 34.4586 36.113C38.1446 34.148 40.2966 33.788 48.3216 33.788C56.3466 33.788 58.4986 34.148 62.1846 36.113C67.8026 39.107 74.4026 45.918 76.7676 51.162L78.6256 55.282H87.6316H96.6376L95.8236 36.032C94.8896 13.928 94.8906 12.625 95.8596 5.532L96.5756 0.282001H93.0136C91.0546 0.282001 88.2666 0.733001 86.8186 1.283C85.0786 1.945 81.0666 1.956 75.0026 1.318C61.1816 -0.136999 48.4026 -0.357999 32.3216 0.581001ZM32.3216 48.848C32.3216 54.176 33.8096 55.282 40.9786 55.282H47.5656L46.0916 53.032C43.8906 49.673 38.4046 46.282 35.1736 46.282C32.7786 46.282 32.3216 46.693 32.3216 48.848ZM55.3216 48.532C53.5096 49.769 51.3626 51.795 50.5516 53.032L49.0776 55.282H55.6646C62.8336 55.282 64.3216 54.176 64.3216 48.848C64.3216 46.693 63.8646 46.282 61.4696 46.282C59.9006 46.282 57.1346 47.295 55.3216 48.532Z" fill="black"/>
<path fill-rule="evenodd" clip-rule="evenodd" d="M32.3216 0.581001C14.0566 1.648 12.0276 1.66 5.43056 0.747002L0.0395546 0L0.770557 5.391C1.75356 12.649 1.75556 13.885 0.819557 36.032L0.0055542 55.282H9.01155H18.0176L19.8756 51.162C22.2406 45.918 28.8406 39.107 34.4586 36.113C38.1446 34.148 40.2966 33.788 48.3216 33.788C56.3466 33.788 58.4986 34.148 62.1846 36.113C67.8026 39.107 74.4026 45.918 76.7676 51.162L78.6256 55.282H87.6316H96.6376L95.8236 36.032C94.8896 13.928 94.8906 12.625 95.8596 5.532L96.5756 0.282001H93.0136C91.0546 0.282001 88.2666 0.733001 86.8186 1.283C85.0786 1.945 81.0666 1.956 75.0026 1.318C61.1816 -0.136999 48.4026 -0.357999 32.3216 0.581001ZM32.3216 48.848C32.3216 54.176 33.8096 55.282 40.9786 55.282H47.5656L46.0916 53.032C43.8906 49.673 38.4046 46.282 35.1736 46.282C32.7786 46.282 32.3216 46.693 32.3216 48.848ZM55.3216 48.532C53.5096 49.769 51.3626 51.795 50.5516 53.032L49.0776 55.282H55.6646C62.8336 55.282 64.3216 54.176 64.3216 48.848C64.3216 46.693 63.8646 46.282 61.4696 46.282C59.9006 46.282 57.1346 47.295 55.3216 48.532Z" fill="black"/>
<path fill-rule="evenodd" clip-rule="evenodd" d="M32.3216 0.581001C14.0566 1.648 12.0276 1.66 5.43056 0.747002L0.0395546 0L0.770557 5.391C1.75356 12.649 1.75556 13.885 0.819557 36.032L0.0055542 55.282H9.01155H18.0176L19.8756 51.162C22.2406 45.918 28.8406 39.107 34.4586 36.113C38.1446 34.148 40.2966 33.788 48.3216 33.788C56.3466 33.788 58.4986 34.148 62.1846 36.113C67.8026 39.107 74.4026 45.918 76.7676 51.162L78.6256 55.282H87.6316H96.6376L95.8236 36.032C94.8896 13.928 94.8906 12.625 95.8596 5.532L96.5756 0.282001H93.0136C91.0546 0.282001 88.2666 0.733001 86.8186 1.283C85.0786 1.945 81.0666 1.956 75.0026 1.318C61.1816 -0.136999 48.4026 -0.357999 32.3216 0.581001ZM32.3216 48.848C32.3216 54.176 33.8096 55.282 40.9786 55.282H47.5656L46.0916 53.032C43.8906 49.673 38.4046 46.282 35.1736 46.282C32.7786 46.282 32.3216 46.693 32.3216 48.848ZM55.3216 48.532C53.5096 49.769 51.3626 51.795 50.5516 53.032L49.0776 55.282H55.6646C62.8336 55.282 64.3216 54.176 64.3216 48.848C64.3216 46.693 63.8646 46.282 61.4696 46.282C59.9006 46.282 57.1346 47.295 55.3216 48.532Z" fill="black"/>
<path fill-rule="evenodd" clip-rule="evenodd" d="M32.3216 0.581001C14.0566 1.648 12.0276 1.66 5.43056 0.747002L0.0395546 0L0.770557 5.391C1.75356 12.649 1.75556 13.885 0.819557 36.032L0.0055542 55.282H9.01155H18.0176L19.8756 51.162C22.2406 45.918 28.8406 39.107 34.4586 36.113C38.1446 34.148 40.2966 33.788 48.3216 33.788C56.3466 33.788 58.4986 34.148 62.1846 36.113C67.8026 39.107 74.4026 45.918 76.7676 51.162L78.6256 55.282H87.6316H96.6376L95.8236 36.032C94.8896 13.928 94.8906 12.625 95.8596 5.532L96.5756 0.282001H93.0136C91.0546 0.282001 88.2666 0.733001 86.8186 1.283C85.0786 1.945 81.0666 1.956 75.0026 1.318C61.1816 -0.136999 48.4026 -0.357999 32.3216 0.581001ZM32.3216 48.848C32.3216 54.176 33.8096 55.282 40.9786 55.282H47.5656L46.0916 53.032C43.8906 49.673 38.4046 46.282 35.1736 46.282C32.7786 46.282 32.3216 46.693 32.3216 48.848ZM55.3216 48.532C53.5096 49.769 51.3626 51.795 50.5516 53.032L49.0776 55.282H55.6646C62.8336 55.282 64.3216 54.176 64.3216 48.848C64.3216 46.693 63.8646 46.282 61.4696 46.282C59.9006 46.282 57.1346 47.295 55.3216 48.532Z" fill="black"/>
<path fill-rule="evenodd" clip-rule="evenodd" d="M32.3216 0.581001C14.0566 1.648 12.0276 1.66 5.43056 0.747002L0.0395546 0L0.770557 5.391C1.75356 12.649 1.75556 13.885 0.819557 36.032L0.0055542 55.282H9.01155H18.0176L19.8756 51.162C22.2406 45.918 28.8406 39.107 34.4586 36.113C38.1446 34.148 40.2966 33.788 48.3216 33.788C56.3466 33.788 58.4986 34.148 62.1846 36.113C67.8026 39.107 74.4026 45.918 76.7676 51.162L78.6256 55.282H87.6316H96.6376L95.8236 36.032C94.8896 13.928 94.8906 12.625 95.8596 5.532L96.5756 0.282001H93.0136C91.0546 0.282001 88.2666 0.733001 86.8186 1.283C85.0786 1.945 81.0666 1.956 75.0026 1.318C61.1816 -0.136999 48.4026 -0.357999 32.3216 0.581001ZM32.3216 48.848C32.3216 54.176 33.8096 55.282 40.9786 55.282H47.5656L46.0916 53.032C43.8906 49.673 38.4046 46.282 35.1736 46.282C32.7786 46.282 32.3216 46.693 32.3216 48.848ZM55.3216 48.532C53.5096 49.769 51.3626 51.795 50.5516 53.032L49.0776 55.282H55.6646C62.8336 55.282 64.3216 54.176 64.3216 48.848C64.3216 46.693 63.8646 46.282 61.4696 46.282C59.9006 46.282 57.1346 47.295 55.3216 48.532Z" fill="black"/>
<path fill-rule="evenodd" clip-rule="evenodd" d="M32.3216 0.581001C14.0566 1.648 12.0276 1.66 5.43056 0.747002L0.0395546 0L0.770557 5.391C1.75356 12.649 1.75556 13.885 0.819557 36.032L0.0055542 55.282H9.01155H18.0176L19.8756 51.162C22.2406 45.918 28.8406 39.107 34.4586 36.113C38.1446 34.148 40.2966 33.788 48.3216 33.788C56.3466 33.788 58.4986 34.148 62.1846 36.113C67.8026 39.107 74.4026 45.918 76.7676 51.162L78.6256 55.282H87.6316H96.6376L95.8236 36.032C94.8896 13.928 94.8906 12.625 95.8596 5.532L96.5756 0.282001H93.0136C91.0546 0.282001 88.2666 0.733001 86.8186 1.283C85.0786 1.945 81.0666 1.956 75.0026 1.318C61.1816 -0.136999 48.4026 -0.357999 32.3216 0.581001ZM32.3216 48.848C32.3216 54.176 33.8096 55.282 40.9786 55.282H47.5656L46.0916 53.032C43.8906 49.673 38.4046 46.282 35.1736 46.282C32.7786 46.282 32.3216 46.693 32.3216 48.848ZM55.3216 48.532C53.5096 49.769 51.3626 51.795 50.5516 53.032L49.0776 55.282H55.6646C62.8336 55.282 64.3216 54.176 64.3216 48.848C64.3216 46.693 63.8646 46.282 61.4696 46.282C59.9006 46.282 57.1346 47.295 55.3216 48.532Z" fill="black"/>
<path fill-rule="evenodd" clip-rule="evenodd" d="M0.0945162 59.032C-0.150484 61.095 0.0975187 73.807 0.645519 87.282C1.77252 114.97 1.77452 115.759 0.770519 123.173L0.0395159 128.564L5.43052 127.805C8.39552 127.387 13.9715 127.211 17.8215 127.414C26.8865 127.891 69.7565 127.891 78.8215 127.414C82.6715 127.211 88.2475 127.387 91.2125 127.805L96.6035 128.564L95.8725 123.173C94.9735 116.534 94.9735 117.834 95.8745 83.532L96.6175 55.282L87.7195 55.283L78.8215 55.284L78.8045 64.533C78.7845 75.147 77.0765 79.527 70.3215 86.282C63.4765 93.127 59.2045 94.776 48.3215 94.776C37.4385 94.776 33.1665 93.127 26.3215 86.282C19.5665 79.527 17.8585 75.147 17.8385 64.533L17.8215 55.284L9.18052 55.283L0.540519 55.282L0.0945162 59.032ZM37.1275 58.379C38.9465 60.015 41.7585 61.619 43.3775 61.943C46.2265 62.513 46.3215 62.718 46.3215 68.279V74.026L42.5335 74.632C38.4885 75.279 34.3215 78.419 34.3215 80.821C34.3215 82.033 36.7095 82.282 48.3215 82.282C59.9335 82.282 62.3215 82.033 62.3215 80.821C62.3215 78.419 58.1545 75.279 54.1095 74.632L50.3215 74.026V68.279C50.3215 62.718 50.4165 62.513 53.2655 61.943C54.8845 61.619 57.6965 60.015 59.5155 58.379L62.8215 55.403H48.3215H33.8215L37.1275 58.379Z" fill="#89B374"/>
<path fill-rule="evenodd" clip-rule="evenodd" d="M0.0945162 59.032C-0.150484 61.095 0.0975187 73.807 0.645519 87.282C1.77252 114.97 1.77452 115.759 0.770519 123.173L0.0395159 128.564L5.43052 127.805C8.39552 127.387 13.9715 127.211 17.8215 127.414C26.8865 127.891 69.7565 127.891 78.8215 127.414C82.6715 127.211 88.2475 127.387 91.2125 127.805L96.6035 128.564L95.8725 123.173C94.9735 116.534 94.9735 117.834 95.8745 83.532L96.6175 55.282L87.7195 55.283L78.8215 55.284L78.8045 64.533C78.7845 75.147 77.0765 79.527 70.3215 86.282C63.4765 93.127 59.2045 94.776 48.3215 94.776C37.4385 94.776 33.1665 93.127 26.3215 86.282C19.5665 79.527 17.8585 75.147 17.8385 64.533L17.8215 55.284L9.18052 55.283L0.540519 55.282L0.0945162 59.032ZM37.1275 58.379C38.9465 60.015 41.7585 61.619 43.3775 61.943C46.2265 62.513 46.3215 62.718 46.3215 68.279V74.026L42.5335 74.632C38.4885 75.279 34.3215 78.419 34.3215 80.821C34.3215 82.033 36.7095 82.282 48.3215 82.282C59.9335 82.282 62.3215 82.033 62.3215 80.821C62.3215 78.419 58.1545 75.279 54.1095 74.632L50.3215 74.026V68.279C50.3215 62.718 50.4165 62.513 53.2655 61.943C54.8845 61.619 57.6965 60.015 59.5155 58.379L62.8215 55.403H48.3215H33.8215L37.1275 58.379Z" fill="#89B374"/>
<path fill-rule="evenodd" clip-rule="evenodd" d="M0.0945162 59.032C-0.150484 61.095 0.0975187 73.807 0.645519 87.282C1.77252 114.97 1.77452 115.759 0.770519 123.173L0.0395159 128.564L5.43052 127.805C8.39552 127.387 13.9715 127.211 17.8215 127.414C26.8865 127.891 69.7565 127.891 78.8215 127.414C82.6715 127.211 88.2475 127.387 91.2125 127.805L96.6035 128.564L95.8725 123.173C94.9735 116.534 94.9735 117.834 95.8745 83.532L96.6175 55.282L87.7195 55.283L78.8215 55.284L78.8045 64.533C78.7845 75.147 77.0765 79.527 70.3215 86.282C63.4765 93.127 59.2045 94.776 48.3215 94.776C37.4385 94.776 33.1665 93.127 26.3215 86.282C19.5665 79.527 17.8585 75.147 17.8385 64.533L17.8215 55.284L9.18052 55.283L0.540519 55.282L0.0945162 59.032ZM37.1275 58.379C38.9465 60.015 41.7585 61.619 43.3775 61.943C46.2265 62.513 46.3215 62.718 46.3215 68.279V74.026L42.5335 74.632C38.4885 75.279 34.3215 78.419 34.3215 80.821C34.3215 82.033 36.7095 82.282 48.3215 82.282C59.9335 82.282 62.3215 82.033 62.3215 80.821C62.3215 78.419 58.1545 75.279 54.1095 74.632L50.3215 74.026V68.279C50.3215 62.718 50.4165 62.513 53.2655 61.943C54.8845 61.619 57.6965 60.015 59.5155 58.379L62.8215 55.403H48.3215H33.8215L37.1275 58.379Z" fill="#89B374"/>
<path fill-rule="evenodd" clip-rule="evenodd" d="M0.0945162 59.032C-0.150484 61.095 0.0975187 73.807 0.645519 87.282C1.77252 114.97 1.77452 115.759 0.770519 123.173L0.0395159 128.564L5.43052 127.805C8.39552 127.387 13.9715 127.211 17.8215 127.414C26.8865 127.891 69.7565 127.891 78.8215 127.414C82.6715 127.211 88.2475 127.387 91.2125 127.805L96.6035 128.564L95.8725 123.173C94.9735 116.534 94.9735 117.834 95.8745 83.532L96.6175 55.282L87.7195 55.283L78.8215 55.284L78.8045 64.533C78.7845 75.147 77.0765 79.527 70.3215 86.282C63.4765 93.127 59.2045 94.776 48.3215 94.776C37.4385 94.776 33.1665 93.127 26.3215 86.282C19.5665 79.527 17.8585 75.147 17.8385 64.533L17.8215 55.284L9.18052 55.283L0.540519 55.282L0.0945162 59.032ZM37.1275 58.379C38.9465 60.015 41.7585 61.619 43.3775 61.943C46.2265 62.513 46.3215 62.718 46.3215 68.279V74.026L42.5335 74.632C38.4885 75.279 34.3215 78.419 34.3215 80.821C34.3215 82.033 36.7095 82.282 48.3215 82.282C59.9335 82.282 62.3215 82.033 62.3215 80.821C62.3215 78.419 58.1545 75.279 54.1095 74.632L50.3215 74.026V68.279C50.3215 62.718 50.4165 62.513 53.2655 61.943C54.8845 61.619 57.6965 60.015 59.5155 58.379L62.8215 55.403H48.3215H33.8215L37.1275 58.379Z" fill="#89B374"/>
<path fill-rule="evenodd" clip-rule="evenodd" d="M0.0945162 59.032C-0.150484 61.095 0.0975187 73.807 0.645519 87.282C1.77252 114.97 1.77452 115.759 0.770519 123.173L0.0395159 128.564L5.43052 127.805C8.39552 127.387 13.9715 127.211 17.8215 127.414C26.8865 127.891 69.7565 127.891 78.8215 127.414C82.6715 127.211 88.2475 127.387 91.2125 127.805L96.6035 128.564L95.8725 123.173C94.9735 116.534 94.9735 117.834 95.8745 83.532L96.6175 55.282L87.7195 55.283L78.8215 55.284L78.8045 64.533C78.7845 75.147 77.0765 79.527 70.3215 86.282C63.4765 93.127 59.2045 94.776 48.3215 94.776C37.4385 94.776 33.1665 93.127 26.3215 86.282C19.5665 79.527 17.8585 75.147 17.8385 64.533L17.8215 55.284L9.18052 55.283L0.540519 55.282L0.0945162 59.032ZM37.1275 58.379C38.9465 60.015 41.7585 61.619 43.3775 61.943C46.2265 62.513 46.3215 62.718 46.3215 68.279V74.026L42.5335 74.632C38.4885 75.279 34.3215 78.419 34.3215 80.821C34.3215 82.033 36.7095 82.282 48.3215 82.282C59.9335 82.282 62.3215 82.033 62.3215 80.821C62.3215 78.419 58.1545 75.279 54.1095 74.632L50.3215 74.026V68.279C50.3215 62.718 50.4165 62.513 53.2655 61.943C54.8845 61.619 57.6965 60.015 59.5155 58.379L62.8215 55.403H48.3215H33.8215L37.1275 58.379Z" fill="#89B374"/>
<path fill-rule="evenodd" clip-rule="evenodd" d="M0.0945162 59.032C-0.150484 61.095 0.0975187 73.807 0.645519 87.282C1.77252 114.97 1.77452 115.759 0.770519 123.173L0.0395159 128.564L5.43052 127.805C8.39552 127.387 13.9715 127.211 17.8215 127.414C26.8865 127.891 69.7565 127.891 78.8215 127.414C82.6715 127.211 88.2475 127.387 91.2125 127.805L96.6035 128.564L95.8725 123.173C94.9735 116.534 94.9735 117.834 95.8745 83.532L96.6175 55.282L87.7195 55.283L78.8215 55.284L78.8045 64.533C78.7845 75.147 77.0765 79.527 70.3215 86.282C63.4765 93.127 59.2045 94.776 48.3215 94.776C37.4385 94.776 33.1665 93.127 26.3215 86.282C19.5665 79.527 17.8585 75.147 17.8385 64.533L17.8215 55.284L9.18052 55.283L0.540519 55.282L0.0945162 59.032ZM37.1275 58.379C38.9465 60.015 41.7585 61.619 43.3775 61.943C46.2265 62.513 46.3215 62.718 46.3215 68.279V74.026L42.5335 74.632C38.4885 75.279 34.3215 78.419 34.3215 80.821C34.3215 82.033 36.7095 82.282 48.3215 82.282C59.9335 82.282 62.3215 82.033 62.3215 80.821C62.3215 78.419 58.1545 75.279 54.1095 74.632L50.3215 74.026V68.279C50.3215 62.718 50.4165 62.513 53.2655 61.943C54.8845 61.619 57.6965 60.015 59.5155 58.379L62.8215 55.403H48.3215H33.8215L37.1275 58.379Z" fill="#89B374"/>
<path fill-rule="evenodd" clip-rule="evenodd" d="M0.0945162 59.032C-0.150484 61.095 0.0975187 73.807 0.645519 87.282C1.77252 114.97 1.77452 115.759 0.770519 123.173L0.0395159 128.564L5.43052 127.805C8.39552 127.387 13.9715 127.211 17.8215 127.414C26.8865 127.891 69.7565 127.891 78.8215 127.414C82.6715 127.211 88.2475 127.387 91.2125 127.805L96.6035 128.564L95.8725 123.173C94.9735 116.534 94.9735 117.834 95.8745 83.532L96.6175 55.282L87.7195 55.283L78.8215 55.284L78.8045 64.533C78.7845 75.147 77.0765 79.527 70.3215 86.282C63.4765 93.127 59.2045 94.776 48.3215 94.776C37.4385 94.776 33.1665 93.127 26.3215 86.282C19.5665 79.527 17.8585 75.147 17.8385 64.533L17.8215 55.284L9.18052 55.283L0.540519 55.282L0.0945162 59.032ZM37.1275 58.379C38.9465 60.015 41.7585 61.619 43.3775 61.943C46.2265 62.513 46.3215 62.718 46.3215 68.279V74.026L42.5335 74.632C38.4885 75.279 34.3215 78.419 34.3215 80.821C34.3215 82.033 36.7095 82.282 48.3215 82.282C59.9335 82.282 62.3215 82.033 62.3215 80.821C62.3215 78.419 58.1545 75.279 54.1095 74.632L50.3215 74.026V68.279C50.3215 62.718 50.4165 62.513 53.2655 61.943C54.8845 61.619 57.6965 60.015 59.5155 58.379L62.8215 55.403H48.3215H33.8215L37.1275 58.379Z" fill="#89B374"/>
<path fill-rule="evenodd" clip-rule="evenodd" d="M0.0945162 59.032C-0.150484 61.095 0.0975187 73.807 0.645519 87.282C1.77252 114.97 1.77452 115.759 0.770519 123.173L0.0395159 128.564L5.43052 127.805C8.39552 127.387 13.9715 127.211 17.8215 127.414C26.8865 127.891 69.7565 127.891 78.8215 127.414C82.6715 127.211 88.2475 127.387 91.2125 127.805L96.6035 128.564L95.8725 123.173C94.9735 116.534 94.9735 117.834 95.8745 83.532L96.6175 55.282L87.7195 55.283L78.8215 55.284L78.8045 64.533C78.7845 75.147 77.0765 79.527 70.3215 86.282C63.4765 93.127 59.2045 94.776 48.3215 94.776C37.4385 94.776 33.1665 93.127 26.3215 86.282C19.5665 79.527 17.8585 75.147 17.8385 64.533L17.8215 55.284L9.18052 55.283L0.540519 55.282L0.0945162 59.032ZM37.1275 58.379C38.9465 60.015 41.7585 61.619 43.3775 61.943C46.2265 62.513 46.3215 62.718 46.3215 68.279V74.026L42.5335 74.632C38.4885 75.279 34.3215 78.419 34.3215 80.821C34.3215 82.033 36.7095 82.282 48.3215 82.282C59.9335 82.282 62.3215 82.033 62.3215 80.821C62.3215 78.419 58.1545 75.279 54.1095 74.632L50.3215 74.026V68.279C50.3215 62.718 50.4165 62.513 53.2655 61.943C54.8845 61.619 57.6965 60.015 59.5155 58.379L62.8215 55.403H48.3215H33.8215L37.1275 58.379Z" fill="#89B374"/>
</svg>
