<svg width="97" height="129" viewBox="0 0 97 129" fill="none" xmlns="http://www.w3.org/2000/svg">
<path fill-rule="evenodd" clip-rule="evenodd" d="M32.282 0.581001C14.017 1.648 11.988 1.66 5.391 0.747002L0 0L0.757 5.391C1.629 11.613 1.624 12.386 0.524002 42.032C0.0700021 54.27 0.0700021 74.295 0.524002 86.532C1.624 116.178 1.629 116.951 0.757 123.173L0 128.564L5.391 127.805C8.356 127.387 13.932 127.211 17.782 127.414C21.632 127.616 35.357 127.782 48.282 127.782C61.207 127.782 74.932 127.616 78.782 127.414C82.632 127.211 88.208 127.387 91.173 127.805L96.564 128.564L95.822 123.173C95.414 120.208 95.238 113.507 95.431 108.282C95.886 95.971 95.886 32.593 95.431 20.282C95.238 15.057 95.408 8.42 95.808 5.532L96.536 0.282001H92.974C91.015 0.282001 88.227 0.733001 86.779 1.283C85.039 1.945 81.027 1.956 74.963 1.318C61.142 -0.136999 48.363 -0.357999 32.282 0.581001ZM62.073 36.151C67.502 38.952 73.534 44.953 76.488 50.491C78.411 54.097 78.776 56.299 78.776 64.282C78.776 75.165 77.127 79.437 70.282 86.282C63.437 93.127 59.165 94.776 48.282 94.776C40.299 94.776 38.097 94.411 34.491 92.488C28.942 89.529 22.943 83.492 20.165 78.073C17.529 72.929 16.54 61.708 18.186 55.619C20.544 46.902 30.103 36.946 38.64 34.315C44.119 32.627 57.235 33.654 62.073 36.151ZM32.286 49.032C32.293 54.499 39.475 62.267 44.532 62.278C46 62.281 46.282 63.23 46.282 68.154V74.026L42.494 74.632C38.449 75.279 34.282 78.419 34.282 80.821C34.282 82.033 36.67 82.282 48.282 82.282C59.894 82.282 62.282 82.033 62.282 80.821C62.282 78.419 58.115 75.279 54.07 74.632L50.282 74.026V68.154C50.282 63.23 50.564 62.281 52.032 62.278C57.089 62.267 64.271 54.499 64.278 49.032C64.281 46.697 63.867 46.283 61.532 46.286C57.843 46.291 52.551 49.646 50.474 53.297C49.543 54.932 48.557 56.269 48.282 56.269C48.007 56.269 47.021 54.932 46.09 53.297C44.013 49.646 38.721 46.291 35.032 46.286C32.697 46.283 32.283 46.697 32.286 49.032Z" fill="#89B374"/>
<path fill-rule="evenodd" clip-rule="evenodd" d="M32.282 0.581001C14.017 1.648 11.988 1.66 5.391 0.747002L0 0L0.757 5.391C1.629 11.613 1.624 12.386 0.524002 42.032C0.0700021 54.27 0.0700021 74.295 0.524002 86.532C1.624 116.178 1.629 116.951 0.757 123.173L0 128.564L5.391 127.805C8.356 127.387 13.932 127.211 17.782 127.414C21.632 127.616 35.357 127.782 48.282 127.782C61.207 127.782 74.932 127.616 78.782 127.414C82.632 127.211 88.208 127.387 91.173 127.805L96.564 128.564L95.822 123.173C95.414 120.208 95.238 113.507 95.431 108.282C95.886 95.971 95.886 32.593 95.431 20.282C95.238 15.057 95.408 8.42 95.808 5.532L96.536 0.282001H92.974C91.015 0.282001 88.227 0.733001 86.779 1.283C85.039 1.945 81.027 1.956 74.963 1.318C61.142 -0.136999 48.363 -0.357999 32.282 0.581001ZM62.073 36.151C67.502 38.952 73.534 44.953 76.488 50.491C78.411 54.097 78.776 56.299 78.776 64.282C78.776 75.165 77.127 79.437 70.282 86.282C63.437 93.127 59.165 94.776 48.282 94.776C40.299 94.776 38.097 94.411 34.491 92.488C28.942 89.529 22.943 83.492 20.165 78.073C17.529 72.929 16.54 61.708 18.186 55.619C20.544 46.902 30.103 36.946 38.64 34.315C44.119 32.627 57.235 33.654 62.073 36.151ZM32.286 49.032C32.293 54.499 39.475 62.267 44.532 62.278C46 62.281 46.282 63.23 46.282 68.154V74.026L42.494 74.632C38.449 75.279 34.282 78.419 34.282 80.821C34.282 82.033 36.67 82.282 48.282 82.282C59.894 82.282 62.282 82.033 62.282 80.821C62.282 78.419 58.115 75.279 54.07 74.632L50.282 74.026V68.154C50.282 63.23 50.564 62.281 52.032 62.278C57.089 62.267 64.271 54.499 64.278 49.032C64.281 46.697 63.867 46.283 61.532 46.286C57.843 46.291 52.551 49.646 50.474 53.297C49.543 54.932 48.557 56.269 48.282 56.269C48.007 56.269 47.021 54.932 46.09 53.297C44.013 49.646 38.721 46.291 35.032 46.286C32.697 46.283 32.283 46.697 32.286 49.032Z" fill="#89B374"/>
<path fill-rule="evenodd" clip-rule="evenodd" d="M32.282 0.581001C14.017 1.648 11.988 1.66 5.391 0.747002L0 0L0.757 5.391C1.629 11.613 1.624 12.386 0.524002 42.032C0.0700021 54.27 0.0700021 74.295 0.524002 86.532C1.624 116.178 1.629 116.951 0.757 123.173L0 128.564L5.391 127.805C8.356 127.387 13.932 127.211 17.782 127.414C21.632 127.616 35.357 127.782 48.282 127.782C61.207 127.782 74.932 127.616 78.782 127.414C82.632 127.211 88.208 127.387 91.173 127.805L96.564 128.564L95.822 123.173C95.414 120.208 95.238 113.507 95.431 108.282C95.886 95.971 95.886 32.593 95.431 20.282C95.238 15.057 95.408 8.42 95.808 5.532L96.536 0.282001H92.974C91.015 0.282001 88.227 0.733001 86.779 1.283C85.039 1.945 81.027 1.956 74.963 1.318C61.142 -0.136999 48.363 -0.357999 32.282 0.581001ZM62.073 36.151C67.502 38.952 73.534 44.953 76.488 50.491C78.411 54.097 78.776 56.299 78.776 64.282C78.776 75.165 77.127 79.437 70.282 86.282C63.437 93.127 59.165 94.776 48.282 94.776C40.299 94.776 38.097 94.411 34.491 92.488C28.942 89.529 22.943 83.492 20.165 78.073C17.529 72.929 16.54 61.708 18.186 55.619C20.544 46.902 30.103 36.946 38.64 34.315C44.119 32.627 57.235 33.654 62.073 36.151ZM32.286 49.032C32.293 54.499 39.475 62.267 44.532 62.278C46 62.281 46.282 63.23 46.282 68.154V74.026L42.494 74.632C38.449 75.279 34.282 78.419 34.282 80.821C34.282 82.033 36.67 82.282 48.282 82.282C59.894 82.282 62.282 82.033 62.282 80.821C62.282 78.419 58.115 75.279 54.07 74.632L50.282 74.026V68.154C50.282 63.23 50.564 62.281 52.032 62.278C57.089 62.267 64.271 54.499 64.278 49.032C64.281 46.697 63.867 46.283 61.532 46.286C57.843 46.291 52.551 49.646 50.474 53.297C49.543 54.932 48.557 56.269 48.282 56.269C48.007 56.269 47.021 54.932 46.09 53.297C44.013 49.646 38.721 46.291 35.032 46.286C32.697 46.283 32.283 46.697 32.286 49.032Z" fill="#89B374"/>
<path fill-rule="evenodd" clip-rule="evenodd" d="M32.282 0.581001C14.017 1.648 11.988 1.66 5.391 0.747002L0 0L0.757 5.391C1.629 11.613 1.624 12.386 0.524002 42.032C0.0700021 54.27 0.0700021 74.295 0.524002 86.532C1.624 116.178 1.629 116.951 0.757 123.173L0 128.564L5.391 127.805C8.356 127.387 13.932 127.211 17.782 127.414C21.632 127.616 35.357 127.782 48.282 127.782C61.207 127.782 74.932 127.616 78.782 127.414C82.632 127.211 88.208 127.387 91.173 127.805L96.564 128.564L95.822 123.173C95.414 120.208 95.238 113.507 95.431 108.282C95.886 95.971 95.886 32.593 95.431 20.282C95.238 15.057 95.408 8.42 95.808 5.532L96.536 0.282001H92.974C91.015 0.282001 88.227 0.733001 86.779 1.283C85.039 1.945 81.027 1.956 74.963 1.318C61.142 -0.136999 48.363 -0.357999 32.282 0.581001ZM62.073 36.151C67.502 38.952 73.534 44.953 76.488 50.491C78.411 54.097 78.776 56.299 78.776 64.282C78.776 75.165 77.127 79.437 70.282 86.282C63.437 93.127 59.165 94.776 48.282 94.776C40.299 94.776 38.097 94.411 34.491 92.488C28.942 89.529 22.943 83.492 20.165 78.073C17.529 72.929 16.54 61.708 18.186 55.619C20.544 46.902 30.103 36.946 38.64 34.315C44.119 32.627 57.235 33.654 62.073 36.151ZM32.286 49.032C32.293 54.499 39.475 62.267 44.532 62.278C46 62.281 46.282 63.23 46.282 68.154V74.026L42.494 74.632C38.449 75.279 34.282 78.419 34.282 80.821C34.282 82.033 36.67 82.282 48.282 82.282C59.894 82.282 62.282 82.033 62.282 80.821C62.282 78.419 58.115 75.279 54.07 74.632L50.282 74.026V68.154C50.282 63.23 50.564 62.281 52.032 62.278C57.089 62.267 64.271 54.499 64.278 49.032C64.281 46.697 63.867 46.283 61.532 46.286C57.843 46.291 52.551 49.646 50.474 53.297C49.543 54.932 48.557 56.269 48.282 56.269C48.007 56.269 47.021 54.932 46.09 53.297C44.013 49.646 38.721 46.291 35.032 46.286C32.697 46.283 32.283 46.697 32.286 49.032Z" fill="#89B374"/>
<path fill-rule="evenodd" clip-rule="evenodd" d="M32.282 0.581001C14.017 1.648 11.988 1.66 5.391 0.747002L0 0L0.757 5.391C1.629 11.613 1.624 12.386 0.524002 42.032C0.0700021 54.27 0.0700021 74.295 0.524002 86.532C1.624 116.178 1.629 116.951 0.757 123.173L0 128.564L5.391 127.805C8.356 127.387 13.932 127.211 17.782 127.414C21.632 127.616 35.357 127.782 48.282 127.782C61.207 127.782 74.932 127.616 78.782 127.414C82.632 127.211 88.208 127.387 91.173 127.805L96.564 128.564L95.822 123.173C95.414 120.208 95.238 113.507 95.431 108.282C95.886 95.971 95.886 32.593 95.431 20.282C95.238 15.057 95.408 8.42 95.808 5.532L96.536 0.282001H92.974C91.015 0.282001 88.227 0.733001 86.779 1.283C85.039 1.945 81.027 1.956 74.963 1.318C61.142 -0.136999 48.363 -0.357999 32.282 0.581001ZM62.073 36.151C67.502 38.952 73.534 44.953 76.488 50.491C78.411 54.097 78.776 56.299 78.776 64.282C78.776 75.165 77.127 79.437 70.282 86.282C63.437 93.127 59.165 94.776 48.282 94.776C40.299 94.776 38.097 94.411 34.491 92.488C28.942 89.529 22.943 83.492 20.165 78.073C17.529 72.929 16.54 61.708 18.186 55.619C20.544 46.902 30.103 36.946 38.64 34.315C44.119 32.627 57.235 33.654 62.073 36.151ZM32.286 49.032C32.293 54.499 39.475 62.267 44.532 62.278C46 62.281 46.282 63.23 46.282 68.154V74.026L42.494 74.632C38.449 75.279 34.282 78.419 34.282 80.821C34.282 82.033 36.67 82.282 48.282 82.282C59.894 82.282 62.282 82.033 62.282 80.821C62.282 78.419 58.115 75.279 54.07 74.632L50.282 74.026V68.154C50.282 63.23 50.564 62.281 52.032 62.278C57.089 62.267 64.271 54.499 64.278 49.032C64.281 46.697 63.867 46.283 61.532 46.286C57.843 46.291 52.551 49.646 50.474 53.297C49.543 54.932 48.557 56.269 48.282 56.269C48.007 56.269 47.021 54.932 46.09 53.297C44.013 49.646 38.721 46.291 35.032 46.286C32.697 46.283 32.283 46.697 32.286 49.032Z" fill="#89B374"/>
<path fill-rule="evenodd" clip-rule="evenodd" d="M32.282 0.581001C14.017 1.648 11.988 1.66 5.391 0.747002L0 0L0.757 5.391C1.629 11.613 1.624 12.386 0.524002 42.032C0.0700021 54.27 0.0700021 74.295 0.524002 86.532C1.624 116.178 1.629 116.951 0.757 123.173L0 128.564L5.391 127.805C8.356 127.387 13.932 127.211 17.782 127.414C21.632 127.616 35.357 127.782 48.282 127.782C61.207 127.782 74.932 127.616 78.782 127.414C82.632 127.211 88.208 127.387 91.173 127.805L96.564 128.564L95.822 123.173C95.414 120.208 95.238 113.507 95.431 108.282C95.886 95.971 95.886 32.593 95.431 20.282C95.238 15.057 95.408 8.42 95.808 5.532L96.536 0.282001H92.974C91.015 0.282001 88.227 0.733001 86.779 1.283C85.039 1.945 81.027 1.956 74.963 1.318C61.142 -0.136999 48.363 -0.357999 32.282 0.581001ZM62.073 36.151C67.502 38.952 73.534 44.953 76.488 50.491C78.411 54.097 78.776 56.299 78.776 64.282C78.776 75.165 77.127 79.437 70.282 86.282C63.437 93.127 59.165 94.776 48.282 94.776C40.299 94.776 38.097 94.411 34.491 92.488C28.942 89.529 22.943 83.492 20.165 78.073C17.529 72.929 16.54 61.708 18.186 55.619C20.544 46.902 30.103 36.946 38.64 34.315C44.119 32.627 57.235 33.654 62.073 36.151ZM32.286 49.032C32.293 54.499 39.475 62.267 44.532 62.278C46 62.281 46.282 63.23 46.282 68.154V74.026L42.494 74.632C38.449 75.279 34.282 78.419 34.282 80.821C34.282 82.033 36.67 82.282 48.282 82.282C59.894 82.282 62.282 82.033 62.282 80.821C62.282 78.419 58.115 75.279 54.07 74.632L50.282 74.026V68.154C50.282 63.23 50.564 62.281 52.032 62.278C57.089 62.267 64.271 54.499 64.278 49.032C64.281 46.697 63.867 46.283 61.532 46.286C57.843 46.291 52.551 49.646 50.474 53.297C49.543 54.932 48.557 56.269 48.282 56.269C48.007 56.269 47.021 54.932 46.09 53.297C44.013 49.646 38.721 46.291 35.032 46.286C32.697 46.283 32.283 46.697 32.286 49.032Z" fill="#89B374"/>
<path fill-rule="evenodd" clip-rule="evenodd" d="M32.282 0.581001C14.017 1.648 11.988 1.66 5.391 0.747002L0 0L0.757 5.391C1.629 11.613 1.624 12.386 0.524002 42.032C0.0700021 54.27 0.0700021 74.295 0.524002 86.532C1.624 116.178 1.629 116.951 0.757 123.173L0 128.564L5.391 127.805C8.356 127.387 13.932 127.211 17.782 127.414C21.632 127.616 35.357 127.782 48.282 127.782C61.207 127.782 74.932 127.616 78.782 127.414C82.632 127.211 88.208 127.387 91.173 127.805L96.564 128.564L95.822 123.173C95.414 120.208 95.238 113.507 95.431 108.282C95.886 95.971 95.886 32.593 95.431 20.282C95.238 15.057 95.408 8.42 95.808 5.532L96.536 0.282001H92.974C91.015 0.282001 88.227 0.733001 86.779 1.283C85.039 1.945 81.027 1.956 74.963 1.318C61.142 -0.136999 48.363 -0.357999 32.282 0.581001ZM62.073 36.151C67.502 38.952 73.534 44.953 76.488 50.491C78.411 54.097 78.776 56.299 78.776 64.282C78.776 75.165 77.127 79.437 70.282 86.282C63.437 93.127 59.165 94.776 48.282 94.776C40.299 94.776 38.097 94.411 34.491 92.488C28.942 89.529 22.943 83.492 20.165 78.073C17.529 72.929 16.54 61.708 18.186 55.619C20.544 46.902 30.103 36.946 38.64 34.315C44.119 32.627 57.235 33.654 62.073 36.151ZM32.286 49.032C32.293 54.499 39.475 62.267 44.532 62.278C46 62.281 46.282 63.23 46.282 68.154V74.026L42.494 74.632C38.449 75.279 34.282 78.419 34.282 80.821C34.282 82.033 36.67 82.282 48.282 82.282C59.894 82.282 62.282 82.033 62.282 80.821C62.282 78.419 58.115 75.279 54.07 74.632L50.282 74.026V68.154C50.282 63.23 50.564 62.281 52.032 62.278C57.089 62.267 64.271 54.499 64.278 49.032C64.281 46.697 63.867 46.283 61.532 46.286C57.843 46.291 52.551 49.646 50.474 53.297C49.543 54.932 48.557 56.269 48.282 56.269C48.007 56.269 47.021 54.932 46.09 53.297C44.013 49.646 38.721 46.291 35.032 46.286C32.697 46.283 32.283 46.697 32.286 49.032Z" fill="#89B374"/>
<path fill-rule="evenodd" clip-rule="evenodd" d="M32.282 0.581001C14.017 1.648 11.988 1.66 5.391 0.747002L0 0L0.757 5.391C1.629 11.613 1.624 12.386 0.524002 42.032C0.0700021 54.27 0.0700021 74.295 0.524002 86.532C1.624 116.178 1.629 116.951 0.757 123.173L0 128.564L5.391 127.805C8.356 127.387 13.932 127.211 17.782 127.414C21.632 127.616 35.357 127.782 48.282 127.782C61.207 127.782 74.932 127.616 78.782 127.414C82.632 127.211 88.208 127.387 91.173 127.805L96.564 128.564L95.822 123.173C95.414 120.208 95.238 113.507 95.431 108.282C95.886 95.971 95.886 32.593 95.431 20.282C95.238 15.057 95.408 8.42 95.808 5.532L96.536 0.282001H92.974C91.015 0.282001 88.227 0.733001 86.779 1.283C85.039 1.945 81.027 1.956 74.963 1.318C61.142 -0.136999 48.363 -0.357999 32.282 0.581001ZM62.073 36.151C67.502 38.952 73.534 44.953 76.488 50.491C78.411 54.097 78.776 56.299 78.776 64.282C78.776 75.165 77.127 79.437 70.282 86.282C63.437 93.127 59.165 94.776 48.282 94.776C40.299 94.776 38.097 94.411 34.491 92.488C28.942 89.529 22.943 83.492 20.165 78.073C17.529 72.929 16.54 61.708 18.186 55.619C20.544 46.902 30.103 36.946 38.64 34.315C44.119 32.627 57.235 33.654 62.073 36.151ZM32.286 49.032C32.293 54.499 39.475 62.267 44.532 62.278C46 62.281 46.282 63.23 46.282 68.154V74.026L42.494 74.632C38.449 75.279 34.282 78.419 34.282 80.821C34.282 82.033 36.67 82.282 48.282 82.282C59.894 82.282 62.282 82.033 62.282 80.821C62.282 78.419 58.115 75.279 54.07 74.632L50.282 74.026V68.154C50.282 63.23 50.564 62.281 52.032 62.278C57.089 62.267 64.271 54.499 64.278 49.032C64.281 46.697 63.867 46.283 61.532 46.286C57.843 46.291 52.551 49.646 50.474 53.297C49.543 54.932 48.557 56.269 48.282 56.269C48.007 56.269 47.021 54.932 46.09 53.297C44.013 49.646 38.721 46.291 35.032 46.286C32.697 46.283 32.283 46.697 32.286 49.032Z" fill="#89B374"/>
</svg>
